<?xml version="1.0" encoding="UTF-8"?>
<svg width="1200pt" height="1200pt" version="1.1" viewBox="0 0 1200 1200" xmlns="http://www.w3.org/2000/svg">
 <g fill="#fff">
  <path d="m600 200c-66.305 0-129.89 26.34-176.78 73.223-46.883 46.883-73.223 110.47-73.223 176.78 0 17.863 9.5312 34.371 25 43.301 15.469 8.9336 34.531 8.9336 50 0 15.469-8.9297 25-25.438 25-43.301 0-39.781 15.805-77.938 43.934-106.07s66.285-43.934 106.07-43.934 77.938 15.805 106.07 43.934 43.934 66.285 43.934 106.07-15.805 77.938-43.934 106.07-66.285 43.934-106.07 43.934c-13.262 0-25.98 5.2695-35.355 14.645s-14.645 22.094-14.645 35.355v150c0 17.863 9.5312 34.371 25 43.301 15.469 8.9336 34.531 8.9336 50 0 15.469-8.9297 25-25.438 25-43.301v-105c60.758-12.336 114.77-46.809 151.54-96.727 36.77-49.918 53.68-111.71 47.449-173.4s-35.156-118.85-81.168-160.41c-46.008-41.555-105.82-64.531-167.82-64.469z"/>
  <path d="m650 950c0 27.613-22.387 50-50 50s-50-22.387-50-50 22.387-50 50-50 50 22.387 50 50"/>
  <path d="m600 0c-159.13 0-311.74 63.215-424.27 175.73-112.52 112.52-175.73 265.14-175.73 424.27s63.215 311.74 175.73 424.27c112.52 112.52 265.14 175.73 424.27 175.73s311.74-63.215 424.27-175.73c112.52-112.52 175.73-265.14 175.73-424.27s-63.215-311.74-175.73-424.27c-112.52-112.52-265.14-175.73-424.27-175.73zm0 1100c-132.61 0-259.79-52.68-353.55-146.45-93.766-93.77-146.45-220.95-146.45-353.55s52.68-259.79 146.45-353.55c93.77-93.766 220.95-146.45 353.55-146.45s259.79 52.68 353.55 146.45c93.766 93.77 146.45 220.95 146.45 353.55 0 87.77-23.102 173.99-66.988 250-43.883 76.008-107 139.13-183.01 183.01-76.008 43.887-162.23 66.988-250 66.988z"/>
 </g>
</svg>
