<svg xmlns="http://www.w3.org/2000/svg" xmlns:xlink="http://www.w3.org/1999/xlink" version="1.1" x="0px" y="0px" viewBox="0 0 500 500" style="enable-background:new 0 0 500 500;" fill="#ffffff" xml:space="preserve"><g><path d="M249,338.2c-49.9,0.1-90.5-40.3-90.5-90.2s40.3-90.5,90.2-90.5s90.5,40.3,90.5,90.2c0,0,0,0.1,0,0.1   C339.2,297.7,298.9,338.1,249,338.2z M249,189.4c-32.2-0.1-58.5,26-58.5,58.2s26,58.5,58.2,58.5s58.5-26,58.5-58.2c0,0,0-0.1,0-0.1   C307.3,215.6,281.2,189.5,249,189.4z"></path><path d="M259.5,450.2h-23.4c-15.8,0-29.1-11.9-30.8-27.6l-2.7-23.9c-9.9-3-19.4-7.1-28.5-12l-17.4,13.9   c-12.3,9.9-30.2,8.9-41.3-2.3l-16.6-16.6c-11.1-11.2-12.1-28.9-2.3-41.2l13.9-17.4c-5.2-9.6-9.4-19.8-12.5-30.3l-20.2-2.3   c-15.7-1.7-27.6-15-27.6-30.8v-23.6c0-15.8,11.9-29.1,27.6-30.8L98,203c3.3-11.1,7.7-21.7,13.3-31.8l-11.7-14.7   c-9.8-12.3-8.8-30.1,2.3-41.2l16.6-16.6c11.2-11.2,29-12.2,41.3-2.3l15.2,12.2c10.3-5.5,21.3-9.9,32.6-13l2-18.1   c1.7-15.7,15-27.6,30.8-27.6h23.4c15.8,0,29.1,11.9,30.8,27.6l2.2,20c10.9,3.5,21.4,8.2,31.3,14l15-12c12.3-9.9,30.2-8.9,41.3,2.3   l16.6,16.6c11.1,11.2,12.1,28.9,2.3,41.2l-13.7,17.2c4.9,9.7,8.8,19.9,11.6,30.5l20.9,2.3c15.7,1.8,27.6,15,27.6,30.8V264   c0,15.8-11.9,29.1-27.6,30.8l-23.6,2.6c-3.2,9.8-7.4,19.2-12.5,28.2l14.2,17.9c9.8,12.3,8.8,30.1-2.3,41.2l-16.6,16.6   c-11.2,11.2-29,12.2-41.3,2.3l-19.2-15.4c-9,4.6-18.3,8.3-28,11.1l-2.6,23.2C288.6,438.3,275.3,450.2,259.5,450.2z M237,418.2h21.7   l2.6-23c1.3-12.5,10.2-22.9,22.2-26.4c8.1-2.3,15.9-5.4,23.4-9.3c10.9-5.6,24.1-4.3,33.6,3.3l19,15.2l15.4-15.4L360.7,345   c-8-9.9-9-23.7-2.7-34.7c4.3-7.5,7.8-15.4,10.4-23.6c3.8-11.5,14-19.8,26-21.1l23.4-2.6v-21.7l-20.7-2.3   c-12.7-1.5-23.2-10.5-26.5-22.9c-2.3-8.8-5.5-17.3-9.7-25.4c-5.5-10.8-4.1-23.8,3.5-33.3l13.5-17L362.5,125l-14.8,11.9   c-10,8-24,9-35,2.6c-8.2-4.8-16.9-8.7-26-11.6c-11.7-3.7-20.1-13.9-21.5-26.1L263,81.8h-21.7l-2,17.9   c-1.4,12.7-10.4,23.3-22.8,26.5c-9.4,2.5-18.4,6.1-27,10.7c-10.9,5.9-24.4,4.7-34.1-3.1l-15-12l-15.3,15.4l11.6,14.5   c7.9,9.8,9,23.4,2.9,34.4c-4.7,8.4-8.4,17.2-11.1,26.4c-3.5,12-13.9,20.8-26.3,22.1l-20,2.2v21.8l20,2.2c12.4,1.3,22.8,10,26.3,22   c2.5,8.8,6.1,17.3,10.4,25.3c6,10.9,4.8,24.4-3,34.1l-13.8,17.3l15.3,15.4l17.2-13.8c9.7-7.8,23.3-9,34.2-3   c7.6,4.1,15.5,7.5,23.8,10c11.8,3.6,20.4,13.9,21.7,26.2L237,418.2z M297,98.1L297,98.1z M263.9,81.8L263.9,81.8z"></path></g></svg>