<svg version="1.1" viewBox="0.0 0.0 512.0 512.0" fill="none" stroke="none" stroke-linecap="square" stroke-miterlimit="10" xmlns:xlink="http://www.w3.org/1999/xlink" xmlns="http://www.w3.org/2000/svg"><clipPath id="g13bb3d11bab_0_6.0"><path d="m0 0l512.0 0l0 512.0l-512.0 0l0 -512.0z" clip-rule="nonzero"/></clipPath><g clip-path="url(#g13bb3d11bab_0_6.0)"><path fill="#000000" fill-opacity="0.0" d="m0 0l512.0 0l0 512.0l-512.0 0z" fill-rule="evenodd"/><path stroke="#000000" stroke-width="3.0" stroke-linecap="butt" d="m116.80052 13.535433l0 281.39633" fill-rule="nonzero"/><path stroke="#000000" stroke-width="3.0" stroke-linecap="butt" d="m172.48032 13.535433l0 281.39633" fill-rule="nonzero"/><path stroke="#000000" stroke-width="3.0" stroke-linecap="butt" d="m228.16011 13.535433l0 281.39633" fill-rule="nonzero"/><path stroke="#000000" stroke-width="3.0" stroke-linecap="butt" d="m283.8399 13.535433l0 281.39633" fill-rule="nonzero"/><path stroke="#000000" stroke-width="3.0" stroke-linecap="butt" d="m339.51968 13.535433l0 281.39633" fill-rule="nonzero"/><path stroke="#000000" stroke-width="3.0" stroke-linecap="butt" d="m395.19946 13.535433l0 281.39633" fill-rule="nonzero"/><path stroke="#000000" stroke-width="3.0" stroke-linecap="butt" d="m115.301834 15.034121l281.3963 0" fill-rule="nonzero"/><path stroke="#000000" stroke-width="3.0" stroke-linecap="butt" d="m115.301834 70.71391l281.3963 0" fill-rule="nonzero"/><path stroke="#000000" stroke-width="3.0" stroke-linecap="butt" d="m115.301834 126.3937l281.3963 0" fill-rule="nonzero"/><path stroke="#000000" stroke-width="3.0" stroke-linecap="butt" d="m115.301834 182.07349l281.3963 0" fill-rule="nonzero"/><path stroke="#000000" stroke-width="3.0" stroke-linecap="butt" d="m115.301834 237.75328l281.3963 0" fill-rule="nonzero"/><path stroke="#000000" stroke-width="3.0" stroke-linecap="butt" d="m115.301834 293.43307l281.3963 0" fill-rule="nonzero"/><path fill="#000000" d="m133.00876 329.2545l4.203125 18.125l0.078125 0l4.625 -18.125l5.484375 0l4.5625 18.34375l0.0625 0l4.375 -18.34375l5.75 0l-7.171875 26.640625l-5.828125 0l-4.5 -18.140625l-0.078125 0l-4.4375 18.140625l-5.953125 0l-7.046875 -26.640625l5.875 0z" fill-rule="nonzero"/><path fill="#000000" d="m197.69415 329.2545l0 21.71875l13.0 0l0 4.921875l-18.875 0l0 -26.640625l5.875 0z" fill-rule="nonzero"/><path fill="#000000" d="m259.61517 329.2545q3.234375 0 5.4375 2.078125q2.21875 2.078125 2.21875 5.28125q0 2.515625 -1.046875 4.171875q-1.046875 1.640625 -3.1875 2.5l0 0.0625q1.890625 0.5 2.890625 2.25q1.0 1.75 1.09375 5.359375q0.0625 3.609375 1.03125 4.9375l-5.859375 0q-0.515625 -1.296875 -0.703125 -4.1875q-0.265625 -3.9375 -1.3125 -5.078125q-1.046875 -1.140625 -3.21875 -1.140625l-6.0000153 0l0 10.40625l-5.875 0l0 -26.640625l14.531265 0zm-2.109375 12.046875q1.84375 0 2.859375 -0.890625q1.03125 -0.90625 1.03125 -2.921875q0 -1.890625 -1.0 -2.78125q-0.984375 -0.90625 -2.890625 -0.90625l-6.5468903 0l0 7.5l6.5468903 0z" fill-rule="nonzero"/><path fill="#000000" d="m311.3182 328.61386q4.84375 0 7.75 2.25q2.921875 2.234375 2.921875 6.328125l-5.671875 0q-0.125 -2.0 -1.375 -3.015625q-1.234375 -1.015625 -3.859375 -1.015625q-1.78125 0 -2.921875 0.796875q-1.140625 0.78125 -1.140625 2.234375q0 1.0 0.46875 1.5q0.484375 0.484375 1.953125 1.03125q1.46875 0.53125 6.40625 1.703125q3.3125 0.796875 5.171875 2.71875q1.859375 1.90625 1.859375 4.84375q0 3.859375 -2.90625 6.203125q-2.890625 2.34375 -8.15625 2.34375q-5.03125 0 -8.203125 -2.46875q-3.171875 -2.484375 -3.171875 -6.859375l0 -0.15625l5.671875 0q0.03125 2.484375 1.65625 3.703125q1.625 1.21875 4.25 1.21875q2.359375 0 3.765625 -0.859375q1.421875 -0.875 1.421875 -2.453125q0 -1.296875 -1.09375 -2.125q-1.078125 -0.828125 -3.453125 -1.4375q-3.0625 -0.6875 -5.5625 -1.453125q-2.5 -0.78125 -4.140625 -2.515625q-1.625 -1.75 -1.625 -4.46875q0 -3.578125 2.875 -5.8125q2.875 -2.234375 7.109375 -2.234375z" fill-rule="nonzero"/><path fill="#000000" d="m377.78183 329.2545l0 4.921875l-14.078125 0l0 5.703125l12.90625 0l0 4.546875l-12.90625 0l0 6.546875l14.359375 0l0 4.921875l-20.234375 0l0 -26.640625l19.953125 0z" fill-rule="nonzero"/><path fill="#000000" d="m144.65416 392.6086q5.9375 0 9.515625 3.984375q3.578125 3.984375 3.578125 10.078125q0 5.96875 -3.59375 9.921875q-3.59375 3.9375 -9.5 3.9375q-3.84375 0 -6.84375 -1.765625q-3.0 -1.765625 -4.640625 -4.96875q-1.625 -3.203125 -1.625 -7.125q0 -6.15625 3.59375 -10.109375q3.609375 -3.953125 9.515625 -3.953125zm-7.265625 14.0625q0 3.9375 1.890625 6.4375q1.890625 2.484375 5.375 2.484375q3.4375 0 5.328125 -2.453125q1.90625 -2.453125 1.90625 -6.46875q0 -4.203125 -1.921875 -6.671875q-1.921875 -2.46875 -5.359375 -2.46875q-3.40625 0 -5.3125 2.5q-1.90625 2.484375 -1.90625 6.640625z" fill-rule="nonzero"/><path fill="#000000" d="m197.69415 393.24924l0 21.71875l13.0 0l0 4.921875l-18.875 0l0 -26.640625l5.875 0z" fill-rule="nonzero"/><path fill="#000000" d="m258.33246 393.24924q4.171875 0 6.609375 2.34375q2.4375 2.328125 2.4375 6.203125q0 3.84375 -2.4375 6.203125q-2.4375 2.34375 -6.609375 2.34375l-6.3437347 0l0 9.546875l-5.875 0l0 -26.640625l12.218735 0zm-1.625 12.53125q2.515625 0 3.75 -0.9375q1.234375 -0.953125 1.234375 -3.046875q0 -2.046875 -1.1875 -3.015625q-1.1875 -0.984375 -3.78125 -0.984375l-4.7343597 0l0 7.984375l4.7187347 0z" fill-rule="nonzero"/><path fill="#000000" d="m312.0958 393.24924q5.328125 0 8.625 3.46875q3.296875 3.46875 3.296875 9.703125q0 6.234375 -3.234375 9.859375q-3.21875 3.609375 -8.6875 3.609375l-11.6875 0l0 -26.640625l11.6875 0zm-0.453125 21.71875q2.8125 0 4.65625 -2.015625q1.84375 -2.015625 1.84375 -6.0q0 -4.609375 -1.9375 -6.6875q-1.921875 -2.09375 -5.578125 -2.09375l-4.34375 0l0 16.796875l5.359375 0z" fill-rule="nonzero"/><path fill="#000000" d="m361.93182 393.24924l11.109375 17.875l0.078125 0l0 -17.875l5.484375 0l0 26.640625l-5.84375 0l-11.109375 -17.84375l-0.0625 0l0 17.84375l-5.5 0l0 -26.640625l5.84375 0z" fill-rule="nonzero"/><path fill="#000000" d="m210.74246 457.244l0 4.921875l-14.078125 0l0 5.703125l12.90625 0l0 4.546875l-12.90625 0l0 6.546875l14.359375 0l0 4.921875l-20.234375 0l0 -26.640625l19.953125 0z" fill-rule="nonzero"/><path fill="#000000" d="m258.93307 457.244l0 26.640625l-5.8750153 0l0 -26.640625l5.8750153 0z" fill-rule="nonzero"/><path fill="#000000" d="m300.04813 457.244l4.203125 18.125l0.078125 0l4.625 -18.125l5.484375 0l4.5625 18.34375l0.0625 0l4.375 -18.34375l5.75 0l-7.171875 26.640625l-5.828125 0l-4.5 -18.140625l-0.078125 0l-4.4375 18.140625l-5.953125 0l-7.046875 -26.640625l5.875 0z" fill-rule="nonzero"/></g></svg>