<svg version="1.1" viewBox="0.0 0.0 512.0 512.0" fill="none" stroke="none" stroke-linecap="square" stroke-miterlimit="10" xmlns:xlink="http://www.w3.org/1999/xlink" xmlns="http://www.w3.org/2000/svg"><clipPath id="g12451ab6ec4_1_4.0"><path d="m0 0l512.0 0l0 512.0l-512.0 0l0 -512.0z" clip-rule="nonzero"/></clipPath><g clip-path="url(#g12451ab6ec4_1_4.0)"><path fill="#000000" fill-opacity="0.0" d="m0 0l512.0 0l0 512.0l-512.0 0z" fill-rule="evenodd"/><path fill="#000000" fill-opacity="0.0" d="m0 0l512.0 0l0 497.73227l-512.0 0z" fill-rule="evenodd"/><path fill="#000000" d="m90.46005 87.82937l-24.0 0l-2.40625 6.015625l2.40625 0q3.578125 0 5.09375 1.375q1.515625 1.375 1.515625 3.59375q0 2.15625 -1.515625 3.53125q-1.515625 1.375 -5.09375 1.375l-13.28125 0q-3.578125 0 -5.09375 -1.375q-1.515625 -1.375 -1.515625 -3.59375q0 -2.203125 1.59375 -3.59375q1.59375 -1.40625 5.25 -1.3125l15.515625 -38.640625l-6.453125 0q-3.578125 0 -5.09375 -1.359375q-1.515625 -1.375 -1.515625 -3.59375q0 -2.21875 1.515625 -3.59375q1.515625 -1.375 5.09375 -1.375l21.328125 0.046875l19.65625 48.515625q3.46875 0 4.578125 0.765625q2.21875 1.59375 2.21875 4.203125q0 2.15625 -1.5 3.53125q-1.484375 1.375 -5.046875 1.375l-13.296875 0q-3.5625 0 -5.09375 -1.375q-1.515625 -1.375 -1.515625 -3.59375q0 -2.15625 1.515625 -3.53125q1.53125 -1.375 5.09375 -1.375l2.40625 0l-2.359375 -6.015625zm-4.09375 -9.875l-7.953125 -19.5625l-8.0 19.5625l15.953125 0zm96.00052 23.265625q-1.296875 1.53125 -2.09375 1.96875q-0.796875 0.4375 -1.953125 0.4375q-2.265625 0 -3.640625 -1.515625q-1.359375 -1.515625 -1.359375 -5.03125l0 -6.65625q0 -3.5625 1.359375 -5.078125q1.375 -1.515625 3.640625 -1.515625q1.734375 0 2.90625 0.921875q1.1875 0.90625 1.8125 3.046875q0.625 2.140625 1.3125 2.921875q1.390625 1.484375 4.953125 3.03125q3.5625 1.53125 7.8125 1.53125q6.59375 0 10.828125 -3.078125q2.703125 -1.875 2.703125 -4.625q0 -1.828125 -1.3125 -3.4375q-1.296875 -1.625 -4.234375 -2.671875q-1.921875 -0.734375 -8.625 -1.984375q-8.078125 -1.484375 -12.234375 -3.609375q-4.140625 -2.125 -6.546875 -5.96875q-2.40625 -3.859375 -2.40625 -8.34375q0 -7.078125 5.921875 -12.390625q5.921875 -5.328125 15.421875 -5.328125q3.796875 0 7.046875 0.84375q3.25 0.84375 5.90625 2.578125q1.921875 -1.890625 3.859375 -1.890625q2.15625 0 3.53125 1.53125q1.375 1.515625 1.375 5.03125l0 7.421875q0 3.5625 -1.375 5.078125q-1.375 1.515625 -3.53125 1.515625q-1.828125 0 -3.1875 -1.109375q-1.0625 -0.8125 -1.59375 -3.265625q-0.515625 -2.46875 -1.34375 -3.53125q-1.390625 -1.828125 -4.1875 -3.078125q-2.796875 -1.25 -6.453125 -1.25q-5.34375 0 -8.453125 2.484375q-3.109375 2.46875 -3.109375 5.171875q0 1.828125 1.265625 3.546875q1.28125 1.703125 3.75 2.671875q1.625 0.671875 9.203125 2.171875q7.59375 1.484375 11.671875 3.265625q4.078125 1.78125 6.765625 5.59375q2.703125 3.796875 2.703125 9.046875q0 7.328125 -5.15625 11.71875q-6.84375 5.765625 -17.4375 5.765625q-4.09375 0 -7.984375 -0.984375q-3.875 -0.984375 -7.53125 -2.953125zm157.71927 -15.5625l0 13.25q-6.703125 3.609375 -11.40625 4.921875q-4.6875 1.328125 -10.125 1.328125q-7.5625 0 -14.015625 -2.25q-5.0625 -1.734375 -7.984375 -4.390625q-2.90625 -2.65625 -5.375 -7.828125q-2.453125 -5.171875 -2.453125 -11.578125l0 -7.140625q0 -9.875 6.03125 -17.625q8.09375 -10.5 22.015625 -10.5q4.046875 0 7.671875 0.828125q3.640625 0.8125 6.921875 2.4375q1.96875 -1.78125 3.84375 -1.78125q2.171875 0 3.515625 1.5q1.359375 1.5 1.359375 5.0625l0 6.40625q0 3.5625 -1.375 5.078125q-1.375 1.515625 -3.546875 1.515625q-1.734375 0 -2.984375 -1.0625q-0.953125 -0.71875 -1.609375 -3.203125q-0.65625 -2.484375 -1.46875 -3.34375q-1.296875 -1.390625 -4.609375 -2.46875q-3.296875 -1.09375 -7.390625 -1.09375q-5.875 0 -10.203125 2.40625q-3.09375 1.78125 -5.703125 6.21875q-2.59375 4.421875 -2.59375 9.625l0 7.140625q0 7.9375 4.59375 12.0625q4.609375 4.109375 14.640625 4.109375q6.78125 0 12.375 -2.546875l0 -7.078125l-10.0625 0q-3.578125 0 -5.09375 -1.375q-1.515625 -1.375 -1.515625 -3.59375q0 -2.203125 1.515625 -3.578125q1.515625 -1.375 5.09375 -1.375l17.53125 0.046875q3.5625 0 5.078125 1.359375q1.515625 1.34375 1.515625 3.546875q0 1.734375 -1.03125 3.046875q-1.03125 1.296875 -3.15625 1.921875zm98.31299 -30.453125l0 38.640625l6.65625 0q3.5625 0 5.078125 1.375q1.515625 1.375 1.515625 3.59375q0 2.15625 -1.515625 3.53125q-1.515625 1.375 -5.078125 1.375l-23.125 0q-3.5625 0 -5.078125 -1.375q-1.515625 -1.375 -1.515625 -3.59375q0 -2.15625 1.515625 -3.53125q1.515625 -1.375 5.078125 -1.375l6.59375 0l0 -38.640625l-10.6875 0l0 9.359375q0 3.5625 -1.375 5.078125q-1.375 1.515625 -3.59375 1.515625q-2.15625 0 -3.53125 -1.515625q-1.375 -1.515625 -1.375 -5.078125l0 -19.28125l51.15625 0.046875l0 19.234375q0 3.5625 -1.375 5.078125q-1.375 1.515625 -3.59375 1.515625q-2.15625 0 -3.53125 -1.515625q-1.375 -1.515625 -1.375 -5.078125l0 -9.359375l-10.84375 0z" fill-rule="nonzero"/><path fill="#9e9e9e" d="m78.41316 194.08873l-9.15625 28.03125l-11.078125 0l-5.875 -48.515625q-2.265625 -0.28125 -3.421875 -1.546875q-1.15625 -1.28125 -1.15625 -3.265625q0 -2.3125 1.515625 -3.703125q1.515625 -1.40625 5.09375 -1.40625l13.140625 0.046875q3.5625 0 5.078125 1.359375q1.53125 1.34375 1.53125 3.5625q0 2.21875 -1.53125 3.59375q-1.515625 1.359375 -5.078125 1.359375l-5.15625 0l3.28125 27.609375l7.75 -22.984375l10.265625 0l7.703125 22.984375l3.28125 -27.609375l-5.15625 0q-3.5625 0 -5.078125 -1.359375q-1.515625 -1.375 -1.515625 -3.59375q0 -2.21875 1.515625 -3.59375q1.515625 -1.375 5.078125 -1.375l13.109375 0.046875q3.5625 0 5.078125 1.359375q1.515625 1.34375 1.515625 3.5625q0 1.875 -1.203125 3.234375q-1.203125 1.34375 -3.46875 1.71875l-5.6875 48.515625l-10.890625 0l-9.484375 -28.03125zm146.1099 -1.15625q0 13.140625 -8.359375 21.890625q-8.359375 8.734375 -19.34375 8.734375q-9.875 0 -17.828125 -7.265625q-9.828125 -9.015625 -9.828125 -23.359375q0 -14.359375 9.828125 -23.421875q7.953125 -7.265625 17.828125 -7.265625q10.984375 0 19.34375 8.75q8.359375 8.734375 8.359375 21.9375zm-9.875 0q0 -9.015625 -5.453125 -14.90625q-5.4375 -5.90625 -12.375 -5.90625q-6.890625 0 -12.34375 5.921875q-5.4375 5.921875 -5.4375 14.890625q0 8.953125 5.4375 14.859375q5.453125 5.890625 12.34375 5.890625q6.9375 0 12.375 -5.875q5.453125 -5.875 5.453125 -14.875zm90.35988 6.890625l0 12.421875l3.578125 0q3.5625 0 5.078125 1.375q1.515625 1.375 1.515625 3.59375q0 2.15625 -1.515625 3.53125q-1.515625 1.375 -5.078125 1.375l-14.984375 0q-3.5625 0 -5.09375 -1.375q-1.515625 -1.375 -1.515625 -3.59375q0 -2.15625 1.546875 -3.53125q1.546875 -1.375 5.0625 -1.375l1.53125 0l0 -38.640625l-1.53125 0q-3.5625 0 -5.09375 -1.359375q-1.515625 -1.375 -1.515625 -3.59375q0 -2.21875 1.515625 -3.59375q1.53125 -1.375 5.09375 -1.375l22.34375 0.046875q10.453125 0 16.203125 5.1875q5.765625 5.171875 5.765625 12.59375q0 4.625 -2.703125 8.40625q-2.6875 3.78125 -8.140625 6.71875q3.140625 2.75 6.703125 7.03125q2.21875 2.75 5.96875 8.578125q3.765625 0 4.96875 0.765625q2.171875 1.5 2.171875 4.203125q0 2.15625 -1.5 3.53125q-1.5 1.375 -5.0625 1.375l-5.625 0q-12.0 -18.546875 -19.90625 -22.296875l-9.78125 0zm0 -9.875l7.71875 0q4.28125 0 7.65625 -1.3125q4.53125 -1.734375 6.09375 -3.65625q1.5625 -1.921875 1.5625 -3.8125q0 -2.78125 -2.984375 -5.171875q-2.984375 -2.390625 -8.71875 -2.390625l-11.328125 0l0 16.34375z" fill-rule="nonzero"/><path fill="#000000" d="m440.08655 192.35435l16.484375 19.890625q2.9375 0.046875 4.40625 1.421875q1.46875 1.375 1.46875 3.546875q0 2.15625 -1.53125 3.53125q-1.515625 1.375 -5.078125 1.375l-11.125 0q-3.515625 0 -5.03125 -1.375q-1.515625 -1.375 -1.515625 -3.59375q0 -2.0625 1.390625 -3.4375q1.40625 -1.375 4.1875 -1.46875l-9.921875 -12.234375l-10.015625 12.234375q2.75 0.09375 4.140625 1.5q1.40625 1.390625 1.40625 3.46875q0 2.15625 -1.53125 3.53125q-1.515625 1.375 -5.078125 1.375l-11.078125 0q-3.5625 0 -5.078125 -1.375q-1.515625 -1.375 -1.515625 -3.59375q0 -2.109375 1.484375 -3.5q1.5 -1.40625 4.390625 -1.40625l16.375 -19.984375l-15.609375 -18.65625q-2.890625 -0.09375 -4.3125 -1.453125q-1.421875 -1.375 -1.421875 -3.5q0 -2.21875 1.515625 -3.59375q1.53125 -1.375 5.09375 -1.375l9.09375 0.046875q3.578125 0 5.09375 1.359375q1.515625 1.34375 1.515625 3.5625q0 1.640625 -0.96875 2.984375q-0.625 0.8125 -2.796875 1.96875l9.203125 11.03125l9.015625 -11.03125q-2.171875 -1.15625 -2.796875 -1.96875q-0.96875 -1.34375 -0.96875 -2.984375q0 -2.171875 1.515625 -3.5625q1.515625 -1.40625 5.09375 -1.40625l9.046875 0.046875q3.5625 0 5.078125 1.359375q1.53125 1.34375 1.53125 3.5625q0 2.125 -1.46875 3.515625q-1.46875 1.390625 -4.265625 1.4375l-15.421875 18.75z" fill-rule="nonzero"/><path fill="#000000" d="m68.10068 319.70746l0 10.9375l3.5625 0q3.578125 0 5.09375 1.375q1.515625 1.375 1.515625 3.59375q0 2.15625 -1.515625 3.53125q-1.515625 1.375 -5.09375 1.375l-14.96875 0q-3.578125 0 -5.09375 -1.375q-1.515625 -1.375 -1.515625 -3.59375q0 -2.15625 1.546875 -3.53125q1.546875 -1.375 5.0625 -1.375l1.53125 0l0 -38.640625l-1.53125 0q-3.578125 0 -5.09375 -1.359375q-1.515625 -1.375 -1.515625 -3.59375q0 -2.21875 1.515625 -3.59375q1.515625 -1.375 5.09375 -1.375l14.96875 0.046875q3.578125 0 5.09375 1.359375q1.515625 1.34375 1.515625 3.5625q0 2.21875 -1.515625 3.59375q-1.515625 1.359375 -5.09375 1.359375l-3.5625 0l0 14.65625l17.546875 -15.078125q-1.546875 -1.109375 -2.125 -2.078125q-0.578125 -0.96875 -0.578125 -2.359375q0 -2.265625 1.515625 -3.65625q1.515625 -1.40625 5.078125 -1.40625l10.078125 0.046875q3.5625 0 5.078125 1.359375q1.515625 1.34375 1.515625 3.5625q0 2.171875 -1.515625 3.5625q-1.515625 1.390625 -4.75 1.390625l-17.71875 15.515625q4.953125 2.84375 9.3125 8.671875q4.359375 5.828125 7.734375 14.453125l2.65625 0q3.515625 0 5.03125 1.375q1.515625 1.375 1.515625 3.59375q0 2.15625 -1.5 3.53125q-1.484375 1.375 -5.046875 1.375l-8.96875 0q-3.078125 -7.375 -6.75 -14.0625q-2.984375 -5.453125 -5.65625 -7.921875q-2.671875 -2.484375 -6.375 -3.984375l-6.078125 5.15625zm133.64114 -27.703125l0 38.640625l9.96875 0q3.5625 0 5.078125 1.375q1.515625 1.375 1.515625 3.59375q0 2.15625 -1.515625 3.53125q-1.515625 1.375 -5.078125 1.375l-29.828125 0q-3.5625 0 -5.078125 -1.375q-1.515625 -1.375 -1.515625 -3.59375q0 -2.15625 1.515625 -3.53125q1.515625 -1.375 5.078125 -1.375l9.984375 0l0 -38.640625l-9.984375 0q-3.5625 0 -5.078125 -1.359375q-1.515625 -1.375 -1.515625 -3.59375q0 -2.21875 1.515625 -3.59375q1.515625 -1.375 5.078125 -1.375l29.828125 0.046875q3.5625 0 5.078125 1.359375q1.515625 1.34375 1.515625 3.5625q0 2.21875 -1.515625 3.59375q-1.515625 1.359375 -5.078125 1.359375l-9.96875 0zm93.29739 38.640625l0 -38.640625l-1.53125 0q-3.578125 0 -5.09375 -1.359375q-1.515625 -1.375 -1.515625 -3.59375q0 -2.21875 1.515625 -3.59375q1.515625 -1.375 5.09375 -1.375l24.75 0q8.875 0 14.265625 4.9375q5.390625 4.9375 5.390625 11.734375q0 3.234375 -1.25 6.078125q-1.25 2.828125 -3.8125 5.25q4.671875 2.78125 7.015625 6.515625q2.34375 3.734375 2.34375 8.453125q0 3.765625 -1.6875 6.984375q-1.265625 2.46875 -3.09375 3.90625q-2.453125 2.03125 -6.015625 3.3125q-3.5625 1.265625 -8.90625 1.265625l-29.0 0q-3.578125 0 -5.09375 -1.375q-1.515625 -1.375 -1.515625 -3.59375q0 -2.15625 1.546875 -3.53125q1.546875 -1.375 5.0625 -1.375l1.53125 0zm9.875 -24.28125l10.84375 0q5.828125 0 9.6875 -2.9375q2.59375 -1.96875 2.59375 -4.90625q0 -2.609375 -2.453125 -4.5625q-2.453125 -1.953125 -7.8125 -1.953125l-12.859375 0l0 14.359375zm0 24.28125l17.0625 0q6.015625 0 8.46875 -1.78125q1.890625 -1.34375 1.890625 -3.859375q0 -2.984375 -3.71875 -5.875q-3.703125 -2.890625 -10.640625 -2.890625l-13.0625 0l0 14.40625z" fill-rule="nonzero"/><path fill="#9e9e9e" d="m411.52408 330.64496l0 -38.640625q-3.125 -0.046875 -4.625 -1.40625q-1.5 -1.375 -1.5 -3.546875q0 -2.21875 1.515625 -3.59375q1.53125 -1.375 5.09375 -1.375l20.65625 0.046875q4.828125 0 9.421875 1.796875q4.609375 1.78125 7.390625 4.515625q2.125 2.078125 4.40625 5.6875q2.296875 3.609375 3.453125 7.1875q1.15625 3.5625 1.15625 8.703125l0 4.734375q0 6.25 -2.125 11.09375q-2.109375 4.84375 -5.5625 7.90625q-3.4375 3.0625 -6.484375 4.5q-4.8125 2.265625 -12.46875 2.265625l-19.84375 0q-3.5625 0 -5.09375 -1.375q-1.515625 -1.375 -1.515625 -3.59375q0 -2.15625 1.515625 -3.546875q1.53125 -1.40625 4.609375 -1.359375zm9.875 0l10.5 0q5.875 0 8.859375 -1.6875q3.90625 -2.21875 5.875 -5.640625q1.984375 -3.421875 1.984375 -8.859375l0 -4.671875q0 -4.671875 -1.78125 -8.1875q-2.796875 -5.5 -6.296875 -7.546875q-3.484375 -2.046875 -8.734375 -2.046875l-10.40625 0l0 38.640625z" fill-rule="nonzero"/><path fill="#000000" d="m68.25691 434.54495l0 14.5l25.1875 0l0 -5.34375q0 -3.5625 1.375 -5.078125q1.375 -1.53125 3.578125 -1.53125q2.171875 0 3.546875 1.53125q1.375 1.515625 1.375 5.078125l0 15.21875l-46.484375 0q-3.5625 0 -5.09375 -1.375q-1.515625 -1.375 -1.515625 -3.59375q0 -2.15625 1.546875 -3.53125q1.546875 -1.375 5.0625 -1.375l1.546875 0l0 -38.640625l-1.546875 0q-3.5625 0 -5.09375 -1.359375q-1.515625 -1.375 -1.515625 -3.59375q0 -2.21875 1.515625 -3.59375q1.53125 -1.375 5.09375 -1.375l44.3125 0.046875l0 15.03125q0 3.515625 -1.34375 5.046875q-1.34375 1.515625 -3.5625 1.515625q-2.21875 0 -3.59375 -1.5q-1.375 -1.5 -1.375 -5.0625l0 -5.15625l-23.015625 0l0 14.265625l8.65625 0q0 -3.859375 0.734375 -4.96875q1.484375 -2.359375 4.234375 -2.359375q2.171875 0 3.53125 1.53125q1.375 1.515625 1.375 5.078125l0 11.359375q0 3.234375 -0.765625 4.34375q-1.53125 2.265625 -4.140625 2.265625q-2.75 0 -4.234375 -2.359375q-0.734375 -1.109375 -0.734375 -5.015625l-8.65625 0zm116.18802 -15.359375l0 29.859375l3.5625 0q3.5625 0 5.078125 1.375q1.515625 1.375 1.515625 3.59375q0 2.15625 -1.515625 3.53125q-1.515625 1.375 -5.078125 1.375l-12.953125 0q-3.578125 0 -5.09375 -1.375q-1.515625 -1.375 -1.515625 -3.59375q0 -2.109375 1.484375 -3.5q1.5 -1.40625 4.640625 -1.40625l0 -38.640625l-1.546875 0q-3.5625 0 -5.078125 -1.359375q-1.515625 -1.375 -1.515625 -3.59375q0 -2.21875 1.515625 -3.59375q1.515625 -1.375 5.078125 -1.375l11.421875 0.046875l25.234375 39.609375l0 -29.734375l-3.5625 0q-3.5625 0 -5.078125 -1.359375q-1.515625 -1.375 -1.515625 -3.59375q0 -2.21875 1.515625 -3.59375q1.515625 -1.375 5.078125 -1.375l12.953125 0.046875q3.578125 0 5.09375 1.359375q1.515625 1.34375 1.515625 3.5625q0 2.171875 -1.5 3.5625q-1.484375 1.390625 -4.578125 1.390625l0 48.515625l-9.78125 0l-25.375 -39.734375z" fill-rule="nonzero"/><path fill="#9e9e9e" d="m300.77356 456.41995q-1.296875 1.53125 -2.09375 1.96875q-0.796875 0.4375 -1.953125 0.4375q-2.265625 0 -3.640625 -1.515625q-1.359375 -1.515625 -1.359375 -5.03125l0 -6.65625q0 -3.5625 1.359375 -5.078125q1.375 -1.515625 3.640625 -1.515625q1.734375 0 2.90625 0.921875q1.1875 0.90625 1.8125 3.046875q0.625 2.140625 1.3125 2.921875q1.390625 1.484375 4.953125 3.03125q3.5625 1.53125 7.8125 1.53125q6.59375 0 10.828125 -3.078125q2.703125 -1.875 2.703125 -4.625q0 -1.828125 -1.3125 -3.4375q-1.296875 -1.625 -4.234375 -2.671875q-1.921875 -0.734375 -8.625 -1.984375q-8.078125 -1.484375 -12.234375 -3.609375q-4.140625 -2.125 -6.546875 -5.96875q-2.40625 -3.859375 -2.40625 -8.34375q0 -7.078125 5.921875 -12.390625q5.921875 -5.328125 15.421875 -5.328125q3.796875 0 7.046875 0.84375q3.25 0.84375 5.90625 2.578125q1.921875 -1.890625 3.859375 -1.890625q2.15625 0 3.53125 1.53125q1.375 1.515625 1.375 5.03125l0 7.421875q0 3.5625 -1.375 5.078125q-1.375 1.515625 -3.53125 1.515625q-1.828125 0 -3.1875 -1.109375q-1.0625 -0.8125 -1.59375 -3.265625q-0.515625 -2.46875 -1.34375 -3.53125q-1.390625 -1.828125 -4.1875 -3.078125q-2.796875 -1.25 -6.453125 -1.25q-5.34375 0 -8.453125 2.484375q-3.109375 2.46875 -3.109375 5.171875q0 1.828125 1.265625 3.546875q1.28125 1.703125 3.75 2.671875q1.625 0.671875 9.203125 2.171875q7.59375 1.484375 11.671875 3.265625q4.078125 1.78125 6.765625 5.59375q2.703125 3.796875 2.703125 9.046875q0 7.328125 -5.15625 11.71875q-6.84375 5.765625 -17.4375 5.765625q-4.09375 0 -7.984375 -0.984375q-3.875 -0.984375 -7.53125 -2.953125z" fill-rule="nonzero"/><path fill="#000000" d="m445.6803 443.02933l-24.0 0l-2.40625 6.015625l2.40625 0q3.578125 0 5.09375 1.375q1.515625 1.375 1.515625 3.59375q0 2.15625 -1.515625 3.53125q-1.515625 1.375 -5.09375 1.375l-13.28125 0q-3.578125 0 -5.09375 -1.375q-1.515625 -1.375 -1.515625 -3.59375q0 -2.203125 1.59375 -3.59375q1.59375 -1.40625 5.25 -1.3125l15.515625 -38.640625l-6.453125 0q-3.578125 0 -5.09375 -1.359375q-1.515625 -1.375 -1.515625 -3.59375q0 -2.21875 1.515625 -3.59375q1.515625 -1.375 5.09375 -1.375l21.328125 0.046875l19.65625 48.515625q3.46875 0 4.578125 0.765625q2.21875 1.59375 2.21875 4.203125q0 2.15625 -1.5 3.53125q-1.484375 1.375 -5.046875 1.375l-13.296875 0q-3.5625 0 -5.09375 -1.375q-1.515625 -1.375 -1.515625 -3.59375q0 -2.15625 1.515625 -3.53125q1.53125 -1.375 5.09375 -1.375l2.40625 0l-2.359375 -6.015625zm-4.09375 -9.875l-7.953125 -19.5625l-8.0 19.5625l15.953125 0z" fill-rule="nonzero"/></g></svg>