<?xml version="1.0" encoding="UTF-8"?>
<svg width="1200pt" height="1200pt" version="1.1" viewBox="0 0 1200 1200" xmlns="http://www.w3.org/2000/svg">
 <path d="m1002.5 1100.9h-252.49c-16.57 0-30-13.43-30-30v-308.88c0-66.168-53.832-120-120-120s-120 53.832-120 120v308.88c0 16.57-13.43 30-30 30h-252.49c-16.57 0-30-13.43-30-30v-661c0-9.7695 4.7539-18.938 12.758-24.551l400.01-280.77c10.285-7.2227 24-7.2617 34.332-0.097656l404.98 280.75c8.0742 5.6055 12.898 14.82 12.898 24.66v661c0.011719 16.574-13.418 30-29.988 30zm-222.49-60h192.49v-615.29l-374.87-259.89-370.12 259.78v615.39h192.49v-278.88c0-99.254 80.746-180 180-180s180 80.746 180 180z" fill="#fff" stroke-width="40" stroke="white" />
</svg>
