<svg version="1.1" viewBox="0.0 0.0 512.0 512.0" fill="none" stroke="none" stroke-linecap="square" stroke-miterlimit="10" xmlns:xlink="http://www.w3.org/1999/xlink" xmlns="http://www.w3.org/2000/svg"><clipPath id="g147c57647d3_0_0.0"><path d="m0 0l512.0 0l0 512.0l-512.0 0l0 -512.0z" clip-rule="nonzero"/></clipPath><g clip-path="url(#g147c57647d3_0_0.0)"><path fill="#000000" fill-opacity="0.0" d="m0 0l512.0 0l0 512.0l-512.0 0z" fill-rule="evenodd"/><path fill="#000000" d="m296.8026 31.761154l90.86615 0l0 90.86614l-90.86615 0z" fill-rule="evenodd"/><path stroke="#ffffff" stroke-width="2.0" stroke-linejoin="round" stroke-linecap="butt" d="m296.8026 31.761154l90.86615 0l0 90.86614l-90.86615 0z" fill-rule="evenodd"/><path fill="#000000" d="m387.66876 122.6273l90.86615 0l0 90.86614l-90.86615 0z" fill-rule="evenodd"/><path stroke="#ffffff" stroke-width="2.0" stroke-linejoin="round" stroke-linecap="butt" d="m387.66876 122.6273l90.86615 0l0 90.86614l-90.86615 0z" fill-rule="evenodd"/><path fill="#000000" d="m387.66876 31.761154l90.86615 0l0 90.86614l-90.86615 0z" fill-rule="evenodd"/><path stroke="#ffffff" stroke-width="2.0" stroke-linejoin="round" stroke-linecap="butt" d="m387.66876 31.761154l90.86615 0l0 90.86614l-90.86615 0z" fill-rule="evenodd"/><path fill="#000000" d="m48.72126 296.0l90.86614 0l0 90.86615l-90.86614 0z" fill-rule="evenodd"/><path stroke="#ffffff" stroke-width="2.0" stroke-linejoin="round" stroke-linecap="butt" d="m48.72126 296.0l90.86614 0l0 90.86615l-90.86614 0z" fill-rule="evenodd"/><path fill="#000000" d="m139.5874 296.0l90.866135 0l0 90.86615l-90.866135 0z" fill-rule="evenodd"/><path stroke="#ffffff" stroke-width="2.0" stroke-linejoin="round" stroke-linecap="butt" d="m139.5874 296.0l90.866135 0l0 90.86615l-90.866135 0z" fill-rule="evenodd"/><path fill="#000000" d="m230.45354 296.0l90.866135 0l0 90.86615l-90.866135 0z" fill-rule="evenodd"/><path stroke="#ffffff" stroke-width="2.0" stroke-linejoin="round" stroke-linecap="butt" d="m230.45354 296.0l90.866135 0l0 90.86615l-90.866135 0z" fill-rule="evenodd"/><path fill="#000000" d="m139.5874 386.86615l90.866135 0l0 90.86612l-90.866135 0z" fill-rule="evenodd"/><path stroke="#ffffff" stroke-width="2.0" stroke-linejoin="round" stroke-linecap="butt" d="m139.5874 386.86615l90.866135 0l0 90.86612l-90.866135 0z" fill-rule="evenodd"/><path fill="#000000" d="m83.68714 76.54593l90.86614 0l0 90.86615l-90.86614 0z" fill-rule="evenodd"/><path stroke="#ffffff" stroke-width="2.0" stroke-linejoin="round" stroke-linecap="butt" d="m83.68714 76.54593l90.86614 0l0 90.86615l-90.86614 0z" fill-rule="evenodd"/><path fill="#000000" d="m83.68714 167.41208l90.86614 0l0 90.86615l-90.86614 0z" fill-rule="evenodd"/><path stroke="#ffffff" stroke-width="2.0" stroke-linejoin="round" stroke-linecap="butt" d="m83.68714 167.41208l90.86614 0l0 90.86615l-90.86614 0z" fill-rule="evenodd"/><path fill="#000000" d="m174.55328 167.41208l90.86615 0l0 90.86615l-90.86615 0z" fill-rule="evenodd"/><path stroke="#ffffff" stroke-width="2.0" stroke-linejoin="round" stroke-linecap="butt" d="m174.55328 167.41208l90.86615 0l0 90.86615l-90.86615 0z" fill-rule="evenodd"/><path fill="#000000" d="m387.66876 213.49344l90.86615 0l0 90.86615l-90.86615 0z" fill-rule="evenodd"/><path stroke="#ffffff" stroke-width="2.0" stroke-linejoin="round" stroke-linecap="butt" d="m387.66876 213.49344l90.86615 0l0 90.86615l-90.86615 0z" fill-rule="evenodd"/></g></svg>