<svg version="1.1" viewBox="0.0 0.0 512.0 512.0" fill="none" stroke="none" stroke-linecap="square" stroke-miterlimit="10" xmlns:xlink="http://www.w3.org/1999/xlink" xmlns="http://www.w3.org/2000/svg"><clipPath id="g1333d85009b_0_0.0"><path d="m0 0l512.0 0l0 512.0l-512.0 0l0 -512.0z" clip-rule="nonzero"/></clipPath><g clip-path="url(#g1333d85009b_0_0.0)"><path fill="#000000" fill-opacity="0.0" d="m0 0l512.0 0l0 512.0l-512.0 0z" fill-rule="evenodd"/><path fill="#000000" d="m108.02262 56.09228l0 10.890621l-28.5 0l0 13.640625l24.703125 0l0 10.09375l-24.703125 0l0 24.375l-13.0 0l0 -58.999996l41.5 0z" fill-rule="nonzero"/><path fill="#000000" d="m243.80464 56.09228l0 37.04687q0 6.375 2.921875 9.40625q2.9375 3.015625 9.234375 3.015625q6.7812653 0 9.500015 -2.953125q2.734375 -2.96875 2.734375 -9.4375l0 -37.07812l12.953125 0l0 37.07812q0 10.984375 -6.40625 17.15625q-6.390625 6.171875 -18.781265 6.171875q-12.46875 0 -18.8125 -6.0625q-6.328125 -6.078125 -6.328125 -17.265625l0 -37.07812l12.984375 0z" fill-rule="nonzero"/><path fill="#000000" d="m414.6432 56.09228l24.609375 39.593746l0.171875 0l0 -39.593746l12.140625 0l0 58.999996l-12.953125 0l-24.578125 -39.515625l-0.15625 0l0 39.515625l-12.15625 0l0 -58.999996l12.921875 0z" fill-rule="nonzero"/><path fill="#000000" d="m73.13798 226.75894l0 37.046875q0 6.375 2.921875 9.40625q2.9375 3.015625 9.234375 3.015625q6.78125 0 9.5 -2.953125q2.734375 -2.96875 2.734375 -9.4375l0 -37.078125l12.953125 0l0 37.078125q0 10.984375 -6.40625 17.15625q-6.390625 6.171875 -18.78125 6.171875q-12.46875 0 -18.8125 -6.0625q-6.328125 -6.078125 -6.328125 -17.265625l0 -37.078125l12.984375 0z" fill-rule="nonzero"/><path fill="#000000" d="m243.97652 226.75894l24.60939 39.59375l0.171875 0l0 -39.59375l12.140625 0l0 59.0l-12.953125 0l-24.57814 -39.515625l-0.15625 0l0 39.515625l-12.15625 0l0 -59.0l12.921875 0z" fill-rule="nonzero"/><path fill="#000000" d="m426.6922 225.33707q13.15625 0 21.078125 8.828125q7.9375 8.8125 7.9375 22.328125q0 13.203125 -7.96875 21.9375q-7.96875 8.734375 -21.046875 8.734375q-8.515625 0 -15.15625 -3.90625q-6.640625 -3.921875 -10.265625 -11.0q-3.609375 -7.078125 -3.609375 -15.765625q0 -13.640625 7.96875 -22.390625q7.984375 -8.765625 21.0625 -8.765625zm-16.0625 31.15625q0 8.71875 4.171875 14.234375q4.171875 5.5 11.890625 5.5q7.625 0 11.8125 -5.421875q4.203125 -5.421875 4.203125 -14.3125q0 -9.3125 -4.265625 -14.78125q-4.25 -5.46875 -11.84375 -5.46875q-7.546875 0 -11.765625 5.53125q-4.203125 5.515625 -4.203125 14.71875z" fill-rule="nonzero"/><path fill="#000000" d="m73.30985 397.42563l24.609375 39.59375l0.171875 0l0 -39.59375l12.140625 0l0 59.0l-12.953125 0l-24.578125 -39.515625l-0.15625 0l0 39.515625l-12.15625 0l0 -59.0l12.921875 0z" fill-rule="nonzero"/><path fill="#000000" d="m256.02554 396.00375q13.15625 0 21.078125 8.828125q7.9375 8.8125 7.9375 22.328125q0 13.203125 -7.96875 21.9375q-7.96875 8.734375 -21.046875 8.734375q-8.515625 0 -15.15625 -3.90625q-6.640625 -3.921875 -10.265625 -11.0q-3.609375 -7.078125 -3.609375 -15.765625q0 -13.640625 7.96875 -22.390625q7.984375 -8.765625 21.0625 -8.765625zm-16.0625 31.15625q0 8.71875 4.171875 14.234375q4.171875 5.5 11.890625 5.5q7.625 0 11.8125 -5.421875q4.203125 -5.421875 4.203125 -14.3125q0 -9.3125 -4.265625 -14.78125q-4.25 -5.46875 -11.84375 -5.46875q-7.546875 0 -11.765625 5.53125q-4.203125 5.515625 -4.203125 14.71875z" fill-rule="nonzero"/><path fill="#000000" d="m400.8936 386.22562l9.328125 40.15625l0.15625 0l10.25 -40.15625l12.15625 0l10.09375 40.640625l0.15625 0l9.6875 -40.640625l12.703125 0l-15.859375 59.0l-12.90625 0l-9.96875 -40.15625l-0.171875 0l-9.84375 40.15625l-13.15625 0l-15.625 -59.0l13.0 0z" fill-rule="nonzero"/></g></svg>