<svg version="1.1" viewBox="0.0 0.0 140.0 140.0" fill="none" stroke="none" stroke-linecap="square" stroke-miterlimit="10" xmlns:xlink="http://www.w3.org/1999/xlink" xmlns="http://www.w3.org/2000/svg"><clipPath id="g18eb992a40f_0_73.0"><path d="m0 0l140.0 0l0 140.0l-140.0 0l0 -140.0z" clip-rule="nonzero"/></clipPath><g clip-path="url(#g18eb992a40f_0_73.0)"><path fill="#000000" fill-opacity="0.0" d="m0 0l140.0 0l0 140.0l-140.0 0z" fill-rule="evenodd"/><path fill="#ffffff" d="m37.04331 6.3464923l0 0c0 -0.98282576 0.7967377 -1.779563 1.7795601 -1.779563l7.118042 0l0 0c0.4719696 0 0.9246063 0.18748903 1.2583389 0.52122164c0.3337326 0.33373308 0.521225 0.7863717 0.521225 1.2583413l0 127.307014c0 0.98283386 -0.7967377 1.7795715 -1.7795639 1.7795715l-7.118042 0c-0.9828224 0 -1.7795601 -0.7967377 -1.7795601 -1.7795715z" fill-rule="evenodd"/><path stroke="#ffffff" stroke-width="1.0" stroke-linejoin="round" stroke-linecap="butt" d="m37.04331 6.3464923l0 0c0 -0.98282576 0.7967377 -1.779563 1.7795601 -1.779563l7.118042 0l0 0c0.4719696 0 0.9246063 0.18748903 1.2583389 0.52122164c0.3337326 0.33373308 0.521225 0.7863717 0.521225 1.2583413l0 127.307014c0 0.98283386 -0.7967377 1.7795715 -1.7795639 1.7795715l-7.118042 0c-0.9828224 0 -1.7795601 -0.7967377 -1.7795601 -1.7795715z" fill-rule="evenodd"/><path fill="#ffffff" d="m92.279526 6.3464923l0 0c0 -0.98282576 0.7967377 -1.779563 1.7795639 -1.779563l7.118042 0l0 0c0.4719696 0 0.9246063 0.18748903 1.2583389 0.52122164c0.3337326 0.33373308 0.521225 0.7863717 0.521225 1.2583413l0 127.307014c0 0.98283386 -0.7967377 1.7795715 -1.7795639 1.7795715l-7.118042 0c-0.98282623 0 -1.7795639 -0.7967377 -1.7795639 -1.7795715z" fill-rule="evenodd"/><path stroke="#ffffff" stroke-width="1.0" stroke-linejoin="round" stroke-linecap="butt" d="m92.279526 6.3464923l0 0c0 -0.98282576 0.7967377 -1.779563 1.7795639 -1.779563l7.118042 0l0 0c0.4719696 0 0.9246063 0.18748903 1.2583389 0.52122164c0.3337326 0.33373308 0.521225 0.7863717 0.521225 1.2583413l0 127.307014c0 0.98283386 -0.7967377 1.7795715 -1.7795639 1.7795715l-7.118042 0c-0.98282623 0 -1.7795639 -0.7967377 -1.7795639 -1.7795715z" fill-rule="evenodd"/></g></svg>