<?xml version="1.0" encoding="UTF-8"?>
<svg width="1200pt" height="1200pt" version="1.1" viewBox="0 0 1200 1200" xmlns="http://www.w3.org/2000/svg">
 <path d="m1100.1 449.09h-74.109c-5.2539-14.844-11.277-29.406-18.039-43.629l52.414-52.414v0.003907c16.008-16.043 25-37.777 25-60.441 0-22.664-8.9922-44.398-25-60.441l-92.535-92.535v0.003906c-16.047-15.992-37.781-24.973-60.438-24.973-22.66 0-44.391 8.9805-60.441 24.973l-52.465 52.359c-14.219-6.7852-28.781-12.824-43.629-18.094v-74.055c-0.023438-22.66-9.0391-44.387-25.062-60.41-16.027-16.023-37.754-25.035-60.418-25.055h-130.85c-22.664 0.019531-44.391 9.0312-60.418 25.055-16.023 16.023-25.039 37.75-25.062 60.41v74.109c-14.844 5.25-29.406 11.273-43.629 18.039l-52.414-52.414h0.003907c-16.043-16.008-37.777-25-60.441-25-22.664 0-44.398 8.9922-60.441 25l-92.535 92.535h0.003906c-15.992 16.047-24.973 37.781-24.973 60.438 0 22.66 8.9805 44.391 24.973 60.441l52.359 52.465c-6.7852 14.219-12.824 28.781-18.094 43.629h-74.055c-22.66 0.023438-44.387 9.0391-60.41 25.062-16.023 16.027-25.035 37.754-25.055 60.418v130.85c0.019531 22.664 9.0312 44.391 25.055 60.418 16.023 16.023 37.75 25.039 60.41 25.062h74.109c5.25 14.844 11.273 29.406 18.039 43.629l-52.414 52.414v-0.003907c-15.992 16.051-24.973 37.785-24.973 60.441s8.9805 44.391 24.973 60.441l92.535 92.535v-0.003906c16.039 16.008 37.777 25 60.438 25 22.664 0 44.402-8.9922 60.441-25l52.465-52.359c14.219 6.7852 28.781 12.824 43.629 18.094v74.105c0.023438 22.664 9.0391 44.391 25.062 60.414 16.027 16.02 37.754 25.031 60.418 25.055h130.85c22.664-0.023438 44.391-9.0352 60.418-25.055 16.023-16.023 25.039-37.75 25.062-60.414v-74.16c14.848-5.25 29.41-11.27 43.629-18.039l52.414 52.414h-0.003907c16.051 15.992 37.785 24.973 60.441 24.973s44.391-8.9805 60.441-24.973l92.535-92.535h-0.003906c16.008-16.039 25-37.777 25-60.438 0-22.664-8.9922-44.402-25-60.441l-52.359-52.465c6.7852-14.219 12.824-28.781 18.094-43.629h74.105c22.664-0.023438 44.391-9.0391 60.414-25.062 16.02-16.027 25.031-37.754 25.055-60.418v-130.85c-0.023438-22.672-9.0391-44.406-25.074-60.434s-37.777-25.035-60.445-25.047zm13.398 216.33c-0.09375 7.3633-6.0391 13.309-13.398 13.402h-100.39c-7.832-0.015625-15.453 2.5273-21.707 7.2344-6.2578 4.7109-10.809 11.328-12.961 18.859-7.8867 27.512-18.867 54.043-32.734 79.078-3.8047 6.8438-5.2773 14.742-4.1875 22.496 1.0859 7.7539 4.6719 14.945 10.215 20.477l71.012 71.012v0.003906c5.1328 5.2734 5.1328 13.672 0 18.945l-92.535 92.535 0.003907-0.003906c-5.2617 5.1602-13.684 5.1602-18.945 0l-71.012-71.012h-0.003906c-5.5312-5.543-12.723-9.1289-20.477-10.215-7.7539-1.0898-15.652 0.38281-22.496 4.1875-25.016 13.875-51.52 24.867-79.012 32.762-7.5312 2.1523-14.148 6.7031-18.859 12.961-4.707 6.2539-7.25 13.875-7.2344 21.703v100.39c-0.09375 7.3633-6.0391 13.309-13.402 13.402h-130.85c-7.3633-0.09375-13.309-6.0391-13.402-13.402v-100.48c0.015625-7.832-2.5273-15.453-7.2344-21.707-4.7109-6.2578-11.328-10.809-18.859-12.961-27.492-7.8945-54-18.891-79.012-32.773-6.8438-3.8047-14.742-5.2734-22.5-4.1836-7.7539 1.0898-14.941 4.6797-20.473 10.223l-71.016 71.016c-5.2734 5.1289-13.672 5.1289-18.945 0l-92.535-92.535h0.003906c-5.1602-5.2617-5.1602-13.684 0-18.945l71.012-71.012v-0.003906c5.543-5.5312 9.1328-12.719 10.223-20.473 1.0898-7.7539-0.37891-15.656-4.1836-22.5-13.879-25.012-24.875-51.52-32.773-79.012-2.1523-7.5273-6.7031-14.148-12.961-18.855-6.2539-4.7109-13.875-7.25-21.703-7.2383h-100.36c-7.332-0.12891-13.238-6.0664-13.332-13.402v-130.82c0.09375-7.3359 6-13.273 13.332-13.402h100.39c7.832 0.015625 15.453-2.5273 21.707-7.2344 6.2578-4.7109 10.809-11.328 12.961-18.859 7.8984-27.492 18.891-54 32.773-79.012 3.8047-6.8438 5.2734-14.742 4.1836-22.5-1.0898-7.7539-4.6797-14.941-10.223-20.473l-70.973-71.016c-5.1602-5.2617-5.1602-13.684 0-18.945l92.535-92.535-0.003906 0.003906c5.2734-5.1328 13.672-5.1328 18.949 0l71.012 71.012c5.5312 5.543 12.719 9.1328 20.473 10.223 7.7578 1.0898 15.656-0.37891 22.5-4.1836 25.012-13.883 51.52-24.879 79.016-32.773 7.5273-2.1523 14.145-6.7031 18.855-12.961 4.707-6.2539 7.25-13.875 7.2344-21.703v-100.36c0.13281-7.332 6.0664-13.238 13.402-13.332h130.85c7.3359 0.09375 13.273 6 13.402 13.332v100.39c-0.011719 7.832 2.5273 15.453 7.2344 21.707 4.7109 6.2578 11.332 10.809 18.859 12.961 27.488 7.8867 53.996 18.867 79.012 32.734 6.8438 3.8047 14.742 5.2773 22.496 4.1875 7.7539-1.0859 14.945-4.6719 20.477-10.215l70.949-70.945c5.2617-5.1602 13.684-5.1602 18.945 0l92.535 92.535-0.003906-0.003906c5.1328 5.2734 5.1328 13.672 0 18.949l-71.012 71.012c-5.543 5.5312-9.1289 12.723-10.215 20.477-1.0898 7.7539 0.38281 15.652 4.1875 22.496 13.871 25.016 24.859 51.523 32.762 79.016 2.1523 7.5273 6.7031 14.145 12.961 18.855 6.2539 4.707 13.875 7.25 21.703 7.2344h100.39c7.3633 0.09375 13.309 6.0391 13.402 13.402zm-513.55-319.56c-67.398 0.003906-132.04 26.781-179.7 74.441s-74.426 112.3-74.426 179.7c0.003906 67.402 26.781 132.04 74.441 179.7 47.66 47.66 112.3 74.43 179.7 74.43 67.398 0 132.04-26.777 179.7-74.434 47.656-47.66 74.434-112.3 74.434-179.7-0.074219-67.379-26.875-131.98-74.523-179.62-47.645-47.645-112.25-74.441-179.62-74.512zm0 436.2c-48.285 0-94.598-19.184-128.74-53.324-34.141-34.145-53.324-80.457-53.324-128.74s19.184-94.598 53.324-128.74c34.145-34.141 80.457-53.324 128.74-53.324s94.598 19.184 128.74 53.324c34.141 34.145 53.324 80.457 53.324 128.74-0.054687 48.27-19.258 94.547-53.387 128.68-34.133 34.129-80.41 53.332-128.68 53.387z" fill="#fff"/>
</svg>
