<svg version="1.1" viewBox="0.0 0.0 512.0 512.0" fill="none" stroke="none" stroke-linecap="square" stroke-miterlimit="10" xmlns:xlink="http://www.w3.org/1999/xlink" xmlns="http://www.w3.org/2000/svg"><clipPath id="g12451ab6ec4_1_8.0"><path d="m0 0l512.0 0l0 512.0l-512.0 0l0 -512.0z" clip-rule="nonzero"/></clipPath><g clip-path="url(#g12451ab6ec4_1_8.0)"><path fill="#000000" fill-opacity="0.0" d="m0 0l512.0 0l0 512.0l-512.0 0z" fill-rule="evenodd"/><path fill="#000000" fill-opacity="0.0" d="m0 186.51968l512.0 0l0 138.96063l-512.0 0z" fill-rule="evenodd"/><path fill="#000000" d="m137.61655 262.20844l-9.15625 28.03125l-11.078125 0l-5.875 -48.515625q-2.265625 -0.28125 -3.421875 -1.546875q-1.15625 -1.28125 -1.15625 -3.265625q0 -2.3125 1.515625 -3.703125q1.515625 -1.40625 5.09375 -1.40625l13.140625 0.046875q3.5625 0 5.078125 1.359375q1.53125 1.34375 1.53125 3.5625q0 2.21875 -1.53125 3.59375q-1.515625 1.359375 -5.078125 1.359375l-5.15625 0l3.28125 27.609375l7.75 -22.984375l10.265625 0l7.703125 22.984375l3.28125 -27.609375l-5.15625 0q-3.5625 0 -5.078125 -1.359375q-1.515625 -1.375 -1.515625 -3.59375q0 -2.21875 1.515625 -3.59375q1.515625 -1.375 5.078125 -1.375l13.109375 0.046875q3.5625 0 5.078125 1.359375q1.515625 1.34375 1.515625 3.5625q0 1.875 -1.203125 3.234375q-1.203125 1.34375 -3.46875 1.71875l-5.6875 48.515625l-10.890625 0l-9.484375 -28.03125zm86.90651 -1.15625q0 13.140625 -8.359375 21.890625q-8.359375 8.734375 -19.34375 8.734375q-9.875 0 -17.828125 -7.265625q-9.828125 -9.015625 -9.828125 -23.359375q0 -14.359375 9.828125 -23.421875q7.953125 -7.265625 17.828125 -7.265625q10.984375 0 19.34375 8.75q8.359375 8.734375 8.359375 21.9375zm-9.875 0q0 -9.015625 -5.453125 -14.90625q-5.4375 -5.90625 -12.375 -5.90625q-6.890625 0 -12.34375 5.921875q-5.4375 5.921875 -5.4375 14.890625q0 8.953125 5.4375 14.859375q5.453125 5.890625 12.34375 5.890625q6.9375 0 12.375 -5.875q5.453125 -5.875 5.453125 -14.875zm68.68776 58.8125l-54.234375 0q-3.5625 0 -5.078125 -1.359375q-1.53125 -1.34375 -1.53125 -3.546875q0 -2.21875 1.53125 -3.59375q1.515625 -1.375 5.078125 -1.375l54.234375 0q3.515625 0 5.03125 1.375q1.515625 1.375 1.515625 3.59375q0 2.15625 -1.5 3.53125q-1.484375 1.375 -5.046875 1.375zm21.67212 -51.921875l0 12.421875l3.578125 0q3.5625 0 5.078125 1.375q1.515625 1.375 1.515625 3.59375q0 2.15625 -1.515625 3.53125q-1.515625 1.375 -5.078125 1.375l-14.984375 0q-3.5625 0 -5.09375 -1.375q-1.515625 -1.375 -1.515625 -3.59375q0 -2.15625 1.546875 -3.53125q1.546875 -1.375 5.0625 -1.375l1.53125 0l0 -38.640625l-1.53125 0q-3.5625 0 -5.09375 -1.359375q-1.515625 -1.375 -1.515625 -3.59375q0 -2.21875 1.515625 -3.59375q1.53125 -1.375 5.09375 -1.375l22.34375 0.046875q10.453125 0 16.203125 5.1875q5.765625 5.171875 5.765625 12.59375q0 4.625 -2.703125 8.40625q-2.6875 3.78125 -8.140625 6.71875q3.140625 2.75 6.703125 7.03125q2.21875 2.75 5.96875 8.578125q3.765625 0 4.96875 0.765625q2.171875 1.5 2.171875 4.203125q0 2.15625 -1.5 3.53125q-1.5 1.375 -5.0625 1.375l-5.625 0q-12.0 -18.546875 -19.90625 -22.296875l-9.78125 0zm0 -9.875l7.71875 0q4.28125 0 7.65625 -1.3125q4.53125 -1.734375 6.09375 -3.65625q1.5625 -1.921875 1.5625 -3.8125q0 -2.78125 -2.984375 -5.171875q-2.984375 -2.390625 -8.71875 -2.390625l-11.328125 0l0 16.34375zm96.73465 61.796875l-54.234375 0q-3.5625 0 -5.078125 -1.359375q-1.53125 -1.34375 -1.53125 -3.546875q0 -2.21875 1.53125 -3.59375q1.515625 -1.375 5.078125 -1.375l54.234375 0q3.515625 0 5.03125 1.375q1.515625 1.375 1.515625 3.59375q0 2.15625 -1.5 3.53125q-1.484375 1.375 -5.046875 1.375z" fill-rule="nonzero"/></g></svg>