<svg version="1.1" viewBox="0.0 0.0 512.0 512.0" fill="none" stroke="none" stroke-linecap="square" stroke-miterlimit="10" xmlns:xlink="http://www.w3.org/1999/xlink" xmlns="http://www.w3.org/2000/svg"><clipPath id="g12548ae889d_0_0.0"><path d="m0 0l512.0 0l0 512.0l-512.0 0l0 -512.0z" clip-rule="nonzero"/></clipPath><g clip-path="url(#g12548ae889d_0_0.0)"><path fill="#000000" fill-opacity="0.0" d="m0 0l512.0 0l0 512.0l-512.0 0z" fill-rule="evenodd"/><path fill="#000000" fill-opacity="0.0" d="m0 186.51968l512.0 0l0 119.590546l-512.0 0z" fill-rule="evenodd"/><path fill="#000000" d="m91.31006 215.87968l9.328125 40.156235l0.15625 0l10.25 -40.156235l12.15625 0l10.09375 40.64061l0.15625 0l9.6875 -40.64061l12.703125 0l-15.859375 58.999985l-12.90625 0l-9.96875 -40.156235l-0.171875 0l-9.84375 40.156235l-13.15625 0l-15.625 -58.999985l13.0 0zm79.59694 46.281235l0 12.71875l-13.0 0l0 -12.71875l13.0 0zm27.515625 0l0 12.71875l-12.984375 0l0 -12.71875l12.984375 0zm27.53125 0l0 12.71875l-13.0 0l0 -12.71875l13.0 0zm45.20311 -46.281235q7.140625 0 12.046875 4.609375q4.90625 4.59375 4.90625 11.6875q0 5.578125 -2.328125 9.234375q-2.3125 3.640625 -7.046875 5.546875l0 0.15625q4.171875 1.09375 6.390625 4.96875q2.21875 3.875 2.421875 11.85936q0.15625 7.984375 2.296875 10.9375l-13.0 0q-1.125 -2.859375 -1.53125 -9.28125q-0.609375 -8.71875 -2.9375 -11.23436q-2.3125 -2.53125 -7.109375 -2.53125l-13.281235 0l0 23.04686l-13.0 0l0 -58.999985l32.17186 0zm-4.6875 26.671875q4.078125 0 6.359375 -1.96875q2.28125 -1.984375 2.28125 -6.46875q0 -4.1875 -2.203125 -6.171875q-2.203125 -1.984375 -6.4375 -1.984375l-14.48436 0l0 16.59375l14.48436 0zm58.082336 -26.671875q11.78125 0 19.078125 7.6875q7.3125 7.6875 7.3125 21.484375q0 13.812485 -7.140625 21.82811q-7.140625 8.0 -19.25 8.0l-25.875 0l0 -58.999985l25.875 0zm-1.015625 48.10936q6.21875 0 10.3125 -4.453125q4.09375 -4.4687347 4.09375 -13.312485q0 -10.203125 -4.28125 -14.828125q-4.265625 -4.625 -12.375 -4.625l-9.609375 0l0 37.218735l11.859375 0zm47.997498 -1.828125l0 12.71875l-13.0 0l0 -12.71875l13.0 0zm27.515625 0l0 12.71875l-12.984375 0l0 -12.71875l12.984375 0zm27.53125 0l0 12.71875l-13.0 0l0 -12.71875l13.0 0z" fill-rule="nonzero"/></g></svg>